<?xml version="1.0" encoding="utf-8"?>
<!-- Generator: Adobe Illustrator 28.2.0, SVG Export Plug-In . SVG Version: 6.00 Build 0)  -->
<svg version="1.1" id="Layer_1" xmlns="http://www.w3.org/2000/svg" xmlns:xlink="http://www.w3.org/1999/xlink" x="0px" y="0px"
	 viewBox="0 0 841.89 595.28" style="enable-background:new 0 0 841.89 595.28;" xml:space="preserve">
<style type="text/css">
	.st0{fill:#005D63;}
</style>
<g>
	<path class="st0" d="M207.85,295.36c-0.37,0.04-0.82-0.52-1-0.79c-0.06-0.07-0.27-0.52-0.21-0.58c0.07-0.07,0.51,0.07,0.63,0.17
		c0.28,0.23,0.53,0.55,0.67,1.11C207.94,295.34,207.88,295.36,207.85,295.36 M198.42,290.14c-0.26,0.08-0.9-0.64-1.08-0.94
		c-0.35-0.5-0.67-1.04-1.04-1.53c-0.33-0.46-0.69-0.77-0.78-1.53c0-0.09-0.06-0.34,0-0.34c0.36,0.03,0.71,0.66,0.88,0.92
		c0.14,0.18,0.28,0.35,0.42,0.53c0.15,0.27,0.24,0.6,0.42,0.85c0.22,0.32,0.5,0.59,0.74,0.91c0.13,0.17,0.3,0.32,0.37,0.54
		C198.4,289.68,198.52,290.1,198.42,290.14 M195.73,290.04c-0.19-0.03-0.3-0.15-0.42-0.24c-0.33-0.24-0.6-0.64-0.61-1.2
		c0-0.07,0.01-0.09,0.05-0.09c0.4,0,0.81,0.6,0.97,0.9c0.03,0.1,0.14,0.33,0.12,0.47C195.84,289.97,195.8,290.02,195.73,290.04
		 M186.76,291.85c-0.02,0.05-0.04,0.1-0.13,0.1c-0.42-0.02-0.55-0.64-0.73-0.95c-0.17-0.22-0.3-0.51-0.44-0.74
		c-0.12-0.18-0.26-0.36-0.36-0.54c-0.12-0.25-0.15-0.52-0.31-0.73c-0.07-0.12-0.21-0.22-0.28-0.34c-0.22-0.31-0.43-0.63-0.6-1.02
		c-0.03-0.16-0.05-0.28-0.11-0.44c-0.07-0.23-0.18-0.5-0.26-0.75c-0.03-0.14-0.06-0.38-0.03-0.46c0.01-0.04,0.03-0.07,0.06-0.06
		c0.31,0.06,0.64,0.85,0.79,1.13c0.18,0.32,0.45,0.56,0.62,0.89c0.12,0.31,0.16,0.66,0.33,0.95c0.12,0.21,0.32,0.39,0.45,0.6
		c0.18,0.25,0.3,0.62,0.44,0.91c0.14,0.34,0.37,0.6,0.51,0.93C186.77,291.46,186.8,291.7,186.76,291.85 M185.07,279.6
		c-0.07-0.15-0.15-0.32-0.21-0.46c-0.07-0.18-0.07-0.36-0.15-0.51c-0.25-0.58-0.53-1.19-0.8-1.75c-0.11-0.22-0.24-0.66-0.15-0.95
		c0.01-0.04,0.11-0.01,0.14,0c0.08,0.1,0.15,0.14,0.22,0.23c0.06,0.07,0.07,0.16,0.13,0.25c0.12,0.19,0.28,0.39,0.39,0.59
		c0.21,0.46,0.25,0.96,0.46,1.41c0.14,0.28,0.36,0.54,0.51,0.83c0.06,0.16,0.11,0.32,0.17,0.5c0.03,0.14,0.02,0.3,0.03,0.4
		c0,0.15-0.01,0.25-0.07,0.25C185.36,280.38,185.24,279.88,185.07,279.6 M270.38,317.4c-0.51-1.83-5.85-1.05-10.27-1.45
		c-4-0.35-9.14-1.09-15.33-3.22c-5.78-2.01-11.37-4.32-16.24-6.95c0,0-1.99-1.04-2.2-1.16c-0.39-0.24-0.71-0.42-1.13-0.66
		c-0.22-0.15-0.6-0.37-0.85-0.47c-0.35-0.16-0.57-0.34-0.88-0.52c-0.3-0.19-0.72-0.39-1-0.57c-0.46-0.28-0.74-0.49-1.16-0.8
		c-0.25-0.19-0.39-0.25-0.74-0.44c-0.21-0.14-0.58-0.35-0.78-0.47c-0.39-0.25-0.63-0.47-1.02-0.73c-0.25-0.19-0.42-0.3-0.71-0.47
		c-0.3-0.16-0.57-0.39-0.82-0.57c-0.14-0.11-0.32-0.22-0.45-0.36c-0.28-0.27-0.57-0.53-0.88-0.75c-0.26-0.21-0.53-0.47-0.81-0.66
		c-0.16-0.14-0.46-0.39-0.63-0.52c-0.43-0.31-0.71-0.55-1.15-0.85c-0.27-0.21-0.52-0.5-0.79-0.72c-0.33-0.23-0.61-0.5-0.95-0.71
		c-0.2-0.17-0.44-0.35-0.6-0.53c-0.22-0.24-0.4-0.41-0.64-0.65c-0.17-0.18-0.46-0.39-0.64-0.57c-0.28-0.34-0.66-0.69-1.01-0.97
		c-0.22-0.21-0.28-0.31-0.37-0.41c-0.06-0.1-0.16-0.2-0.31-0.36l-0.32-0.32c-0.08-0.07-0.17-0.15-0.4-0.38
		c-0.07-0.07-0.21-0.26-0.34-0.43c-0.11-0.14-0.21-0.28-0.26-0.36c-0.23-0.24-0.38-0.38-0.52-0.55c-0.11-0.12-0.22-0.24-0.37-0.37
		c-0.08-0.09-0.16-0.2-0.21-0.31c-0.06-0.11-0.14-0.21-0.21-0.3c-0.14-0.16-0.23-0.09-0.26-0.07c-0.07,0.07-0.11,0.2-0.01,0.39
		c0.11,0.21,0.27,0.44,0.38,0.58c0.01,0.03,0.04,0.06,0.05,0.07c0.03,0.07,0.07,0.14,0.11,0.21c0.06,0.1,0.13,0.2,0.18,0.31
		c0.18,0.22,0.37,0.39,0.52,0.57l0.18,0.18c0.11,0.13,0.21,0.25,0.3,0.38c0.09,0.15,0.19,0.3,0.32,0.43
		c0.06,0.04,0.11,0.11,0.17,0.18c0.04,0.07,0.11,0.15,0.17,0.23c0.08,0.08,0.19,0.19,0.3,0.3c0.16,0.17,0.34,0.33,0.48,0.46
		c0.12,0.11,0.25,0.24,0.39,0.38c0.32,0.38,0.67,0.77,0.96,1.14c0.17,0.21,0.46,0.37,0.66,0.52c0.24,0.17,0.39,0.42,0.56,0.63
		c0.14,0.16,0.42,0.4,0.54,0.58c0.33,0.41,0.56,0.65,0.99,0.95c0.25,0.2,0.45,0.36,0.66,0.63c0.12,0.15,0.48,0.52,0.63,0.67
		c0.35,0.45,0.51,0.89,0.45,0.89c-0.24,0.06-0.83-0.46-1.18-0.67c-0.3-0.19-0.34-0.26-0.6-0.47c-0.07-0.06-0.5-0.37-0.64-0.55
		c-0.12-0.12-0.43-0.44-0.54-0.58c-0.48-0.62-0.66-0.66-1.23-1.2c-0.42-0.41-0.92-0.77-1.33-1.15c-0.12-0.11-0.24-0.24-0.36-0.37
		c-0.12-0.14-0.28-0.26-0.4-0.38c-0.2-0.24-0.44-0.7-0.66-0.88c-0.24-0.18-0.41-0.33-0.64-0.53c-0.09-0.04-0.17-0.15-0.24-0.22
		c-0.13-0.07-0.26-0.18-0.35-0.31c-0.27-0.33-0.54-0.69-0.81-1.03c-0.12-0.18-0.32-0.32-0.43-0.49c-0.27-0.37-0.5-0.76-0.77-1.13
		c-0.38-0.5-0.92-0.85-1.31-1.35c-0.36-0.51-0.6-1.11-0.95-1.63c-0.15-0.24-0.39-0.42-0.56-0.62c-0.11-0.14-0.15-0.29-0.24-0.43
		c-0.19-0.27-0.4-0.57-0.61-0.85c-0.24-0.35-0.41-0.77-0.66-1.15c-0.04-0.06-0.14-0.3-0.26-0.51c-0.17-0.2-0.31-0.41-0.47-0.68
		c-0.16-0.26-0.25-0.44-0.37-0.64c-0.14-0.19-0.21-0.37-0.31-0.51c-0.07-0.13-0.25-0.37-0.32-0.47c-0.24-0.34-0.3-0.52-0.54-0.85
		c-0.15-0.18-0.31-0.35-0.42-0.29c-0.11,0.07-0.07,0.19-0.04,0.28c0.08,0.28,0.08,0.24,0.21,0.45c0.19,0.34,0.25,0.51,0.46,0.81
		c0.08,0.16,0.25,0.51,0.39,0.71c0.14,0.19,0.25,0.4,0.35,0.57c0.08,0.18,0.23,0.61,0.39,0.79c0.11,0.13,0.24,0.41,0.33,0.6
		c0.21,0.39,0.45,0.71,0.66,1.01c0.14,0.25,0.27,0.53,0.4,0.77c0.27,0.42,0.6,0.79,0.88,1.21l0.49,0.89
		c0.16,0.24,0.39,0.44,0.54,0.7c0.2,0.28,0.31,0.61,0.5,0.9c0.14,0.24,0.35,0.44,0.5,0.69c0.27,0.39,0.52,0.76,0.78,1.13
		c0.16,0.21,0.35,0.37,0.5,0.58c0.2,0.28,0.37,0.6,0.59,0.84c0.25,0.24,0.32,0.39,0.53,0.61c0.32,0.37,1.03,1.42,0.93,1.42
		c-0.44,0.05-1.28-0.9-1.66-1.23c-0.26-0.27-0.57-0.47-0.76-0.73c-0.27-0.39-0.48-0.81-0.76-1.17c-0.11-0.14-0.28-0.24-0.37-0.38
		c-0.2-0.24-0.38-0.51-0.6-0.74c-0.09-0.08-0.2-0.15-0.27-0.25c-0.35-0.45-0.63-0.92-0.98-1.38c-0.13-0.18-0.32-0.35-0.44-0.54
		c-0.11-0.14-0.17-0.29-0.27-0.45c-0.12-0.21-0.31-0.41-0.43-0.62c-0.11-0.15-0.17-0.32-0.27-0.44c-0.17-0.28-0.42-0.52-0.6-0.8
		c-0.14-0.22-0.17-0.51-0.32-0.75c-0.38-0.56-0.8-1.15-1.16-1.73c-0.08-0.15-0.14-0.31-0.22-0.47c-0.28-0.46-0.57-0.96-0.88-1.43
		c-0.11-0.17-0.15-0.37-0.27-0.53c-0.13-0.23-0.34-0.38-0.46-0.59c-0.12-0.17-0.17-0.33-0.25-0.51c-0.11-0.24-0.25-0.5-0.38-0.71
		c-0.07-0.16-0.12-0.31-0.21-0.44c-0.34-0.55-0.64-1.14-0.93-1.76c-0.17-0.33-0.39-0.61-0.54-0.94c-0.17-0.35-0.34-0.74-0.5-1.08
		c-0.09-0.23-0.19-0.47-0.24-0.71c-0.18-0.39-0.45-0.71-0.62-1.1c-0.12-0.24-0.18-0.5-0.28-0.72c-0.07-0.13-0.19-0.24-0.3-0.18
		c-0.08,0.05-0.09,0.16-0.03,0.37c0.11,0.41,0.32,0.84,0.42,1.08c0.21,0.44,0.3,0.92,0.51,1.36c0.11,0.24,0.27,0.48,0.38,0.74
		l0.58,1.27c0.11,0.22,0.2,0.46,0.34,0.67c0.05,0.14,0.17,0.27,0.22,0.39c0.13,0.31,0.17,0.59,0.28,0.88
		c0.16,0.29,0.38,0.53,0.48,0.81c0.7,1.42,1.38,2.83,2.21,4.1c0.22,0.36,0.34,0.8,0.57,1.16c0.25,0.38,0.57,0.64,0.81,1.02
		c0.18,0.31,0.24,0.72,0.4,1.03c0.28,0.49,0.62,0.91,0.92,1.34c0.07,0.14,0.09,0.27,0.18,0.39c0.11,0.18,0.26,0.37,0.37,0.55
		c0.15,0.24,0.22,0.51,0.39,0.72c0.18,0.24,0.42,0.44,0.58,0.68c0.23,0.31,0.38,0.65,0.6,0.94c0.16,0.21,0.39,0.36,0.55,0.57
		c0.25,0.33,1.13,1.45,1.38,1.79c0.37,0.47,1.05,1.2,1.38,1.83c0.09,0.21,0.43,0.65,0.36,0.75c-0.18,0.14-1.03-0.8-1.18-0.95
		c-0.35-0.35-0.66-0.81-0.97-1.2c-0.08-0.09-0.92-0.89-0.99-0.98c-0.07-0.11-0.15-0.22-0.22-0.35c-0.24-0.33-0.38-0.73-0.62-1.07
		c-0.11-0.12-0.25-0.22-0.36-0.36c-0.18-0.25-0.32-0.54-0.5-0.8c-0.3-0.39-0.67-0.73-0.96-1.15c-0.34-0.42-0.56-0.94-0.88-1.39
		c-0.17-0.21-0.36-0.39-0.51-0.62c-0.08-0.1-0.11-0.21-0.17-0.32c-0.13-0.17-0.28-0.38-0.36-0.58c-0.09-0.18-0.16-0.34-0.26-0.51
		c-0.33-0.53-0.67-1.09-1-1.62c-0.15-0.22-0.24-0.5-0.39-0.74c-0.24-0.38-0.59-0.72-0.83-1.13c-0.32-0.46-0.46-1.02-0.76-1.5
		c-0.2-0.31-0.44-0.59-0.62-0.9c-0.22-0.34-0.33-0.73-0.51-1.08c-0.18-0.31-0.42-0.6-0.57-0.91c-0.16-0.35-0.26-0.68-0.42-1.02
		c-0.09-0.18-0.23-0.37-0.31-0.56c-0.11-0.23-0.14-0.47-0.24-0.71c-0.28-0.64-0.74-1.25-1.03-1.89c-0.23-0.46-0.42-0.95-0.59-1.43
		c-0.08-0.26-0.14-0.53-0.26-0.77c-0.26-0.58-0.59-1.21-0.86-1.81c-0.11-0.31-0.22-0.63-0.33-0.93c-0.01-0.1-0.03-0.19-0.07-0.27
		c-0.13-0.27-0.27-0.54-0.38-0.81c-0.12-0.33-0.22-0.64-0.33-0.98c-0.41-1.03-0.8-2.2-1.19-3.29c-0.04-0.2-0.06-0.43-0.14-0.64
		c-0.19-0.56-0.4-1.13-0.6-1.69c-0.12-0.29-0.39-0.18-0.32,0.11c0.07,0.38,0.14,0.48,0.18,0.78c0.03,0.17,0.06,0.31,0.09,0.45
		c0.04,0.19,0.15,0.39,0.2,0.56c0.11,0.34,0.12,0.65,0.23,0.99c0.16,0.43,0.32,0.89,0.47,1.34c0.04,0.21,0.08,0.44,0.13,0.69
		c0.08,0.21,0.16,0.44,0.23,0.63c0.22,0.57,0.45,1.1,0.64,1.67c0.07,0.32,0.17,0.63,0.25,0.97c0.09,0.18,0.23,0.36,0.28,0.54
		c0.08,0.14,0.09,0.3,0.16,0.46c0.15,0.35,0.28,0.73,0.43,1.09c0.14,0.3,0.32,0.6,0.43,0.93c0.05,0.14,0.05,0.27,0.11,0.42
		c0.34,0.96,0.73,1.96,1.13,2.86c0.11,0.23,0.14,0.45,0.23,0.7c0.08,0.19,0.21,0.37,0.28,0.57c0.04,0.12,0.08,0.24,0.14,0.38
		c0.13,0.25,0.33,0.47,0.46,0.73c0.36,0.74,0.66,1.44,1.1,2.08c0.42,0.57,0.59,1.37,0.9,2.08c0.16,0.32,0.34,0.6,0.53,0.89
		c0.09,0.15,0.16,0.34,0.23,0.49c0.19,0.36,0.3,0.67,0.56,0.99c0.18,0.27,0.16,0.35,0.32,0.71c0.04,0.11,0.23,0.8,0.19,0.8
		c-0.06,0.04-0.4-0.17-0.51-0.31c-0.17-0.17-0.41-0.39-0.58-0.77c-0.08-0.21-0.25-0.53-0.34-0.71c-0.21-0.46-0.59-0.84-0.84-1.27
		c-0.17-0.23-0.24-0.53-0.38-0.79c-0.22-0.49-0.48-0.98-0.72-1.49c-0.09-0.2-0.24-0.39-0.37-0.59c-0.12-0.18-0.18-0.4-0.32-0.6
		c-0.25-0.42-0.57-0.89-0.78-1.35c-0.16-0.35-0.24-0.7-0.4-1.02c-0.04-0.11-0.14-0.21-0.2-0.32c-0.11-0.17-0.15-0.35-0.25-0.55
		c-0.12-0.26-0.28-0.51-0.42-0.78c-0.24-0.53-0.39-1.07-0.63-1.57c-0.12-0.26-0.32-0.47-0.42-0.71c-0.16-0.37-0.19-0.83-0.39-1.22
		c-0.43-1.02-0.96-2.08-1.37-3.17c-0.05-0.18-0.07-0.39-0.13-0.57c-0.17-0.48-0.39-0.92-0.58-1.37c-0.07-0.21-0.08-0.39-0.15-0.6
		c-0.12-0.33-0.27-0.66-0.39-0.97c-0.03-0.11-0.04-0.23-0.08-0.34c-0.13-0.29-0.21-0.64-0.35-0.95c-0.07-0.16-0.2-0.33-0.25-0.5
		c-0.13-0.32-0.09-0.69-0.19-1c-0.16-0.44-0.34-0.92-0.51-1.34c-0.07-0.25-0.09-0.5-0.2-0.75c-0.11-0.3-0.21-0.62-0.32-0.9
		c-0.12-0.32-0.11-0.61-0.21-0.94c-0.05-0.24-0.16-0.51-0.25-0.71c-0.15-0.44-0.21-0.9-0.36-1.29c-0.01-0.05-0.04-0.14-0.07-0.21
		c-0.04-0.12-0.13-0.22-0.23-0.19c-0.12,0.04-0.12,0.21-0.12,0.32c0.03,0.3,0.15,0.58,0.24,0.84c0.08,0.25,0.15,0.54,0.21,0.79
		c0.04,0.18,0.03,0.35,0.07,0.53c0.06,0.25,0.15,0.49,0.22,0.74c0.06,0.22,0.03,0.48,0.08,0.66c0.16,0.53,0.33,1.13,0.51,1.62
		c0.07,0.26,0.09,0.57,0.17,0.78c0.11,0.28,0.19,0.56,0.28,0.81c0.08,0.24,0.11,0.43,0.19,0.64c0.11,0.24,0.23,0.46,0.31,0.73
		c0.08,0.32,0.08,0.64,0.19,0.94c0.2,0.52,0.42,0.98,0.59,1.48c0.06,0.17,0.07,0.36,0.14,0.54c0.16,0.41,0.26,0.86,0.4,1.29
		c0.23,0.58,0.52,1.17,0.71,1.76c0.23,0.58,0.26,1.28,0.5,1.81c0.13,0.27,0.38,0.44,0.5,0.7c0.09,0.18,0.06,0.36,0.13,0.57
		c0.06,0.22,0.17,0.43,0.24,0.64c0.05,0.2,0.11,0.38,0.16,0.56c0.09,0.22,0.26,0.43,0.34,0.64c0.16,0.35,0.25,0.73,0.44,1.02
		c0.14,0.23,0.34,0.45,0.47,0.73c0.14,0.28,0.18,0.6,0.3,0.9c0.2,0.44,0.45,0.85,0.6,1.33c0.16,0.4,0.21,0.85,0.42,1.21
		c0.18,0.38,0.44,0.71,0.65,1.07c0.12,0.27,0.23,0.53,0.36,0.82c0.11,0.19,0.3,0.4,0.43,0.62c0.14,0.26,0.31,0.56,0.42,0.83
		c0.11,0.22,0.14,0.42,0.24,0.61c0.19,0.27,0.33,0.52,0.51,0.8c0.16,0.24,0.34,0.57,0.45,0.85c0.09,0.24,0.18,0.46,0.31,0.66
		c0.15,0.19,0.33,0.38,0.44,0.57c0.13,0.21,0.28,0.91,0.21,0.93c-0.13,0.05-0.55-0.34-0.67-0.47c-0.32-0.42-0.5-0.95-0.78-1.37
		c-0.33-0.46-0.53-0.72-0.77-1.24c-0.15-0.31-0.39-0.84-0.58-1.13c-0.17-0.25-0.39-0.49-0.52-0.77c-0.11-0.22-0.17-0.52-0.26-0.75
		c-0.16-0.34-0.47-0.56-0.63-0.89c-0.2-0.39-0.27-0.8-0.47-1.18c-0.08-0.16-0.22-0.36-0.3-0.55c-0.11-0.23-0.17-0.45-0.27-0.69
		c-0.22-0.47-0.56-0.86-0.76-1.35c-0.24-0.49-0.37-0.99-0.62-1.5c-0.12-0.24-0.33-0.49-0.45-0.76c-0.18-0.35-0.25-0.71-0.43-1.06
		c-0.09-0.21-0.24-0.42-0.35-0.63c-0.14-0.3-0.19-0.64-0.33-0.96c-0.34-0.73-0.65-1.45-0.98-2.18c-0.12-0.28-0.15-0.56-0.28-0.85
		c-0.11-0.24-0.24-0.46-0.36-0.73c-0.27-0.63-0.38-1.38-0.66-2.01c-0.15-0.33-0.32-0.63-0.45-0.97c-0.19-0.56-0.28-1.12-0.47-1.68
		c-0.31-0.85-0.56-1.76-0.86-2.58c-0.08-0.27-0.11-0.51-0.19-0.77c-0.09-0.25-0.18-0.51-0.27-0.75c-0.06-0.19-0.11-0.5-0.17-0.75
		c-0.22-0.73-0.44-1.44-0.69-2.17c-0.04-0.18-0.06-0.47-0.13-0.72c-0.02-0.12-0.11-0.27-0.13-0.38c-0.06-0.16-0.06-0.3-0.11-0.47
		c-0.2-0.53-0.34-1.15-0.52-1.68c-0.03-0.16-0.04-0.4-0.11-0.6c-0.24-0.74-0.36-1.67-0.64-2.36c-0.06-0.13-0.15-0.26-0.28-0.23
		c-0.14,0.03-0.11,0.18-0.09,0.3c0.04,0.36,0.17,0.64,0.23,0.94c0.02,0.12,0.02,0.3,0.02,0.44c0.03,0.14,0.05,0.31,0.09,0.42
		c0.14,0.45,0.28,0.98,0.42,1.43c0.04,0.21,0.01,0.54,0.06,0.78c0.19,0.71,0.33,1.56,0.6,2.21c0.25,0.57,0.3,1.28,0.44,1.91
		c0.06,0.26,0.08,0.54,0.11,0.82c0.05,0.25,0.2,0.45,0.28,0.67c0.06,0.17,0.06,0.31,0.12,0.46c0.13,0.45,0.23,0.92,0.41,1.37
		c0.11,0.32,0.27,0.62,0.38,0.94c0.06,0.13,0.03,0.25,0.07,0.4c0.07,0.32,0.14,0.63,0.24,0.95c0.21,0.61,0.42,1.3,0.64,1.91
		c0.13,0.36,0.16,0.7,0.28,1.03c0.48,1.33,1,2.68,1.48,4.01c0.09,0.29,0.17,0.58,0.24,0.86c0.11,0.31,0.28,0.58,0.42,0.83
		c0.17,0.36,0.19,0.72,0.33,1.09c0.16,0.41,0.37,0.75,0.52,1.2c0.07,0.21,0.16,0.44,0.25,0.65c0.07,0.17,0.22,0.32,0.31,0.45
		c0.11,0.27,0.13,0.62,0.26,0.88c0.13,0.27,0.35,0.47,0.5,0.74c0.16,0.22,0.17,0.51,0.28,0.78c0.2,0.4,0.42,0.77,0.6,1.21
		c0.08,0.18,0.13,0.35,0.2,0.52c0.07,0.19,0.24,0.39,0.33,0.59c0,0,0.02,0,0.02,0.01c0.01,0.04,0.01,0.07,0.03,0.12
		c0.01,0.09,0.04,0.2,0.07,0.27c0.04,0.12,0.18,0.32,0.22,0.39c0.03,0.04,0.13,0.15,0.2,0.24c0.04,0.04,0.07,0.08,0.11,0.14
		c0.18,0.26,0.19,0.68,0.34,0.97c0.14,0.31,0.39,0.55,0.55,0.84c0.11,0.24,0.16,0.83,0.03,0.84c-0.6,0-0.65-0.84-0.84-1.28
		c-0.18-0.36-0.41-0.64-0.6-0.98c-0.03-0.06-0.09-0.19-0.14-0.33c-0.04-0.11-0.09-0.23-0.14-0.34c-0.07-0.16-0.07-0.15-0.12-0.25
		c-0.06-0.11-0.23-0.32-0.28-0.43v-0.02c-0.24-0.36-0.4-0.89-0.58-1.14c-0.08-0.15-0.21-0.28-0.3-0.43
		c-0.15-0.23-0.23-0.52-0.35-0.8c-0.12-0.22-0.3-0.46-0.4-0.71c-0.14-0.3-0.16-0.68-0.3-0.98c-0.07-0.16-0.21-0.33-0.28-0.47
		c-0.16-0.36-0.26-0.73-0.44-1.07c-0.08-0.17-0.2-0.32-0.3-0.49c-0.13-0.28-0.21-0.59-0.36-0.88c-0.32-0.56-0.65-1.18-0.92-1.78
		c-0.15-0.37-0.21-0.73-0.37-1.08c-0.13-0.3-0.31-0.6-0.44-0.88c-0.08-0.19-0.12-0.38-0.19-0.58c-0.13-0.35-0.27-0.7-0.41-1.03
		c-0.07-0.21-0.14-0.74-0.19-0.95c-0.11-0.24-0.23-0.52-0.34-0.76c-0.16-0.37-0.22-0.76-0.39-1.14c-0.12-0.27-0.25-0.59-0.37-0.88
		c-0.09-0.25-0.11-0.47-0.21-0.72c-0.07-0.17-0.19-0.38-0.24-0.56c-0.09-0.21-0.14-0.57-0.21-0.85c-0.11-0.32-0.24-0.62-0.34-0.94
		c-0.07-0.23-0.07-0.78-0.15-0.92c-0.33-0.97-0.63-2.02-0.95-3.01c-0.12-0.43-0.19-0.9-0.33-1.34c-0.04-0.18-0.04-0.4-0.09-0.58
		c-0.08-0.27-0.21-0.58-0.28-0.84c-0.05-0.21-0.08-0.41-0.13-0.6c-0.05-0.2-0.16-0.42-0.23-0.62c-0.19-0.58-0.28-1.21-0.45-1.77
		c-0.07-0.25-0.07-0.56-0.13-0.78c-0.23-0.71-0.3-1.52-0.48-2.29c-0.04-0.21-0.09-0.42-0.14-0.63c-0.36-1.38-0.53-2.94-0.93-4.28
		c-0.07-0.25,0.01-0.57-0.03-0.85c-0.09-0.31-0.18-0.59-0.27-0.86c-0.04-0.15-0.04-0.25-0.07-0.39c-0.07-0.24-0.18-0.42-0.28-0.39
		c-0.15,0.06-0.13,0.2-0.13,0.39c0.02,0.32,0.05,0.56,0.13,0.81c0.03,0.23,0.01,0.39,0.06,0.59c0.13,0.42,0.18,1.03,0.23,1.42
		c0.03,0.17,0.02,0.38,0.05,0.58c0.04,0.19,0.19,0.47,0.24,0.68c0.04,0.3,0.04,0.67,0.07,0.97c0.05,0.26,0.13,0.52,0.21,0.77
		c0.05,0.21,0,0.42,0.07,0.62c0.05,0.21,0.18,0.4,0.21,0.61c0.04,0.27,0,0.63,0.05,0.84c0.31,1.23,0.39,2.66,0.76,3.85
		c0.04,0.18,0.04,0.35,0.08,0.51c0.31,1.02,0.53,2.14,0.84,3.16c0.03,0.15,0.03,0.32,0.07,0.5c0.11,0.36,0.18,0.75,0.25,1.12
		c0.05,0.16,0.05,0.31,0.08,0.46c0.11,0.39,0.25,0.75,0.37,1.13c0.05,0.18,0.06,0.34,0.09,0.53c0.03,0.15,0.11,0.31,0.15,0.43
		c0.06,0.22,0.04,0.43,0.11,0.61c0.04,0.13,0.15,0.24,0.18,0.38c0.04,0.21,0.07,0.42,0.14,0.64c0.07,0.26,0.21,0.52,0.33,0.77
		c0.08,0.21,0.08,0.42,0.16,0.63c0.16,0.38,0.32,0.79,0.44,1.17c0.13,0.32,0.14,0.63,0.26,0.96c0.07,0.2,0.16,0.42,0.23,0.63
		c0.05,0.17,0.08,0.32,0.14,0.5c0.06,0.16,0.23,0.41,0.34,0.6c0.07,0.23,0.04,0.53,0.12,0.77c0.07,0.25,0.21,0.44,0.31,0.66
		c0.07,0.24,0.07,0.46,0.13,0.71c0.06,0.19,0.19,0.36,0.26,0.53c0.07,0.19,0.15,0.4,0.22,0.58c0.04,0.14,0.17,0.27,0.22,0.41
		c0.09,0.22,0.19,0.46,0.27,0.71c0.15,0.32,0.17,0.75,0.27,1.13c0.03,0.1,0.01,0.38-0.06,0.4c-0.15,0.02-0.33-0.22-0.43-0.37
		c-0.17-0.24-0.35-0.55-0.49-0.85c-0.04-0.12-0.07-0.22-0.11-0.34c-0.08-0.25-0.18-0.54-0.3-0.81c-0.06-0.15-0.17-0.33-0.23-0.5
		c-0.08-0.24-0.04-0.54-0.14-0.75c-0.07-0.18-0.22-0.32-0.32-0.5c-0.05-0.17-0.07-0.35-0.15-0.5c-0.08-0.2-0.19-0.38-0.32-0.56
		c-0.07-0.18-0.07-0.36-0.14-0.59c-0.07-0.24-0.15-0.5-0.25-0.72c-0.11-0.24-0.25-0.46-0.36-0.73c-0.04-0.12-0.07-0.25-0.12-0.39
		c-0.06-0.18-0.16-0.39-0.23-0.54c-0.03-0.15-0.06-0.28-0.12-0.42c-0.09-0.2-0.2-0.41-0.27-0.63c-0.06-0.18-0.07-0.36-0.15-0.54
		c-0.11-0.31-0.2-0.65-0.31-0.96c-0.07-0.24-0.08-0.47-0.16-0.71c-0.09-0.27-0.21-0.55-0.31-0.82c-0.08-0.22-0.11-0.47-0.17-0.69
		c-0.11-0.31-0.25-0.57-0.36-0.89c-0.06-0.25-0.06-0.5-0.11-0.73c-0.18-0.58-0.37-1.21-0.56-1.8c-0.19-0.66-0.22-1.42-0.42-2.09
		c-0.13-0.46-0.28-0.92-0.43-1.38c-0.06-0.25-0.06-0.49-0.12-0.73c-0.14-0.51-0.32-1.21-0.5-1.75c-0.09-0.3-0.07-0.59-0.16-0.91
		c-0.08-0.31-0.11-0.68-0.19-1.01c-0.07-0.21-0.14-0.34-0.18-0.61c-0.06-0.25-0.05-0.57-0.09-0.77c-0.04-0.21-0.39-1.37-0.42-1.58
		c-0.03-0.2-0.03-0.61-0.05-0.73c-0.02-0.11-0.2-0.62-0.21-0.73c-0.03-0.14-0.03-0.29-0.09-0.56c-0.04-0.26-0.19-0.82-0.22-0.99
		c-0.03-0.16-0.03-0.51-0.06-0.65c-0.03-0.19-0.14-0.56-0.21-0.83c-0.09-0.33-0.01-0.69-0.12-1c-0.06-0.24-0.16-0.45-0.24-0.69
		c-0.04-0.19-0.11-0.44-0.11-0.57c-0.03-0.16-0.03-0.54-0.04-0.68c0-0.19-0.08-0.5-0.11-0.78c-0.02-0.36-0.11-0.77-0.17-0.99
		c-0.03-0.14-0.02-0.31-0.04-0.42c-0.11-0.36-0.2-0.71-0.4-0.68c-0.13,0.01-0.18,0.12-0.12,0.37c0.07,0.27,0.09,0.5,0.17,0.79
		c0.06,0.15,0.06,0.52,0.07,0.64c0,0.21,0.01,0.24,0.04,0.43c0,0.07,0.03,0.27,0.04,0.36c0.03,0.13,0.08,0.31,0.08,0.41v0.43
		c0,0.11,0,0.14,0.02,0.31c0.05,0.17,0.06,0.18,0.08,0.33c0.01,0.13,0,0.24,0,0.34c0,0.13,0.02,0.23,0.05,0.37
		c0.07,0.24,0.24,0.59,0.18,0.94c-0.07,0.39,0.03,0.75,0.13,1.07c0.04,0.22,0,0.45,0.04,0.64l0.21,0.89
		c0.06,0.26,0.03,0.47,0.09,0.7c0.08,0.33,0.32,0.77,0.33,0.9c0.03,0.16,0.01,0.55,0.06,0.8c0.04,0.24,0.11,0.53,0.12,0.7
		c0.02,0.14,0,0.22,0.02,0.33c0.01,0.12,0.18,0.68,0.2,0.82c0.03,0.16,0.02,0.23,0.05,0.38c0.03,0.15,0.16,0.75,0.18,0.95
		c0.03,0.19,0.01,0.32,0.04,0.5c0.07,0.32,0.2,0.56,0.25,0.84c0.05,0.22,0.03,0.35,0.06,0.53c0.06,0.26,0.15,0.51,0.2,0.76
		c0.04,0.2,0.04,0.4,0.07,0.59c0.08,0.43,0.15,0.88,0.26,1.31c0.08,0.25,0.23,0.5,0.31,0.74c0.06,0.22,0.07,0.45,0.14,0.68
		c0.05,0.2,0.19,0.38,0.24,0.6c0.04,0.15,0.02,0.34,0.05,0.53c0.06,0.2,0.16,0.39,0.18,0.62c0.05,0.15,0.02,0.3,0.05,0.46
		c0.05,0.18,0.15,0.34,0.19,0.51c0.04,0.23,0.04,0.47,0.11,0.67c0.06,0.26,0.17,0.52,0.25,0.76c0.08,0.22,0.05,0.46,0.09,0.71
		c0.15,0.53,0.33,1.11,0.51,1.59c0.08,0.25,0.06,0.54,0.14,0.82c0.07,0.18,0.17,0.32,0.24,0.49c0.06,0.17,0.02,0.36,0.06,0.54
		c0.08,0.34,0.14,0.76,0.25,1.07c0.11,0.35,0.32,0.65,0.45,0.98c0.12,0.36,0.14,0.73,0.24,1.09c0.12,0.32,0.26,0.63,0.39,0.9
		c0.11,0.27,0.07,0.61,0.18,0.88c0.08,0.31,0.3,0.53,0.42,0.83c0.15,0.34,0.22,0.69,0.33,1.03c0.03,0.15,0.06,0.29,0.09,0.45
		c0.14,0.43,0.37,0.81,0.53,1.23c0.05,0.21,0.07,0.37,0.13,0.55c0.11,0.32,0.24,0.62,0.38,0.94c0.13,0.25,0.28,0.51,0.41,0.78
		c0.12,0.24,0.13,0.5,0.25,0.75c0.07,0.24,0.19,0.52,0.3,0.76c0.06,0.16,0.06,0.3,0.14,0.46c0.28,0.68,0.66,1.35,0.98,2.02
		c0.18,0.36,0.25,0.76,0.42,1.13c0.14,0.31,0.3,0.57,0.43,0.89c0.07,0.2,0.11,0.39,0.2,0.58c0.16,0.36,0.4,0.73,0.57,1.11
		c0.04,0.07,0.17,0.46,0.11,0.62c0,0.01-0.02,0.04-0.03,0.04c-0.11,0.03-0.35-0.15-0.46-0.27c-0.44-0.43-0.52-1.24-0.8-1.8
		c-0.08-0.15-0.19-0.33-0.28-0.5c-0.04-0.12-0.06-0.22-0.12-0.33c-0.2-0.37-0.42-0.67-0.59-1.08c-0.12-0.26-0.15-0.58-0.25-0.83
		c-0.52-1.08-1.09-2.11-1.55-3.17c-0.22-0.49-0.27-1.05-0.45-1.58c-0.12-0.31-0.32-0.57-0.43-0.85c-0.11-0.23-0.13-0.48-0.24-0.71
		c-0.15-0.32-0.35-0.59-0.45-0.94c-0.07-0.21-0.11-0.43-0.19-0.63c-0.09-0.25-0.26-0.44-0.36-0.65c-0.14-0.35-0.17-0.69-0.3-1.08
		c-0.05-0.19-0.13-0.42-0.21-0.61c-0.05-0.17-0.07-0.35-0.13-0.53c-0.14-0.41-0.38-0.77-0.55-1.17c-0.11-0.28-0.07-0.63-0.18-0.91
		c-0.11-0.22-0.28-0.4-0.39-0.63c-0.08-0.24,0-0.54-0.07-0.82c-0.07-0.27-0.18-0.53-0.27-0.78c-0.04-0.18-0.05-0.34-0.12-0.49
		c-0.13-0.35-0.24-0.67-0.36-0.99c-0.05-0.18-0.05-0.33-0.13-0.5c-0.08-0.18-0.24-0.36-0.32-0.59c-0.08-0.32-0.11-0.65-0.18-0.99
		c-0.14-0.4-0.28-0.75-0.4-1.16c-0.05-0.13-0.05-0.25-0.07-0.39c-0.11-0.37-0.16-0.78-0.24-1.13c-0.05-0.18-0.03-0.34-0.07-0.51
		c-0.11-0.34-0.23-0.7-0.34-1.01c-0.05-0.22-0.07-0.43-0.12-0.63c-0.15-0.55-0.32-1.18-0.48-1.7c-0.03-0.16-0.01-0.29-0.07-0.44
		c-0.11-0.41-0.28-0.92-0.38-1.33c-0.04-0.25-0.04-0.5-0.11-0.72c-0.05-0.3-0.16-0.56-0.22-0.84c-0.01-0.14,0-0.24,0-0.34
		c-0.03-0.19-0.04-0.39-0.07-0.55c-0.18-0.76-0.48-1.66-0.63-2.4c-0.07-0.27-0.07-0.55-0.11-0.8c-0.03-0.2-0.04-0.41-0.11-0.6
		c-0.06-0.2-0.15-0.39-0.18-0.6c-0.03-0.32-0.04-0.63-0.09-0.94c0-0.03,0-0.04-0.01-0.07c-0.04-0.37-0.24-1.16-0.28-1.47
		c-0.06-0.37-0.11-0.73-0.15-1.11c0-0.23-0.05-0.47-0.07-0.73c-0.06-0.38-0.16-0.73-0.19-1.12c-0.02-0.27-0.01-0.51-0.04-0.72
		c-0.01-0.16-0.03-0.39-0.21-0.39c-0.18,0-0.15,0.2-0.17,0.37c-0.01,0.39,0.06,0.92,0.09,1.16c0.06,0.45,0.01,0.91,0.06,1.37
		c0.03,0.26,0.12,0.53,0.15,0.76c0.06,0.44,0.11,0.9,0.15,1.31v0.02c0.02,0.21,0.03,0.39,0.07,0.58c0,0.02,0,0.03,0.02,0.05v0.03
		v0.03c0.03,0.08,0.04,0.18,0.07,0.25c0.04,0.16,0.03,0.3,0.07,0.47c0.14,0.52,0.11,1.08,0.24,1.57c0.19,0.74,0.3,1.53,0.53,2.28
		c0.05,0.2,0,0.42,0.05,0.65c0.08,0.22,0.14,0.45,0.19,0.68c0.05,0.28,0.01,0.57,0.08,0.84c0.06,0.26,0.15,0.53,0.21,0.78
		c0.09,0.28,0.09,0.6,0.18,0.93c0.09,0.34,0.2,0.7,0.25,1.01c0.08,0.39,0.11,0.82,0.19,1.2c0.05,0.35,0.25,0.74,0.33,1.11
		c0,0.1,0,0.23,0.01,0.37c0.05,0.25,0.13,0.53,0.19,0.76c0.02,0.13,0.01,0.21,0.05,0.35c0.13,0.49,0.27,1.08,0.41,1.54
		c0.04,0.14,0.05,0.29,0.08,0.42c0.11,0.33,0.2,0.58,0.24,0.75c0.03,0.17,0.06,0.36,0.09,0.54c0.07,0.25,0.16,0.46,0.19,0.71
		c0.04,0.18,0.07,0.34,0.13,0.52c0.05,0.21,0.15,0.4,0.23,0.61c0.14,0.42,0.17,0.89,0.31,1.31c0.08,0.24,0.21,0.49,0.3,0.74
		c0.06,0.25,0.09,0.54,0.17,0.81c0.13,0.41,0.28,0.89,0.43,1.3c0.19,0.5,0.3,1.05,0.45,1.5c0.07,0.2,0.06,0.38,0.13,0.59
		c0.15,0.45,0.3,0.98,0.44,1.44c0.08,0.25,0.08,0.5,0.19,0.74c0.16,0.39,0.39,0.74,0.54,1.13c0.12,0.36,0.15,0.69,0.28,1.02
		c0.17,0.43,0.36,0.85,0.54,1.32c0.11,0.32,0.16,0.63,0.27,0.94c0.11,0.23,0.25,0.51,0.38,0.75c0.08,0.22,0.18,0.45,0.23,0.68
		c0.06,0.17,0.24,0.46,0.38,0.7c0.14,0.32,0.17,0.64,0.27,0.97c0.19,0.52,0.43,1.04,0.64,1.51c0.09,0.18,0.11,0.35,0.18,0.56
		c0.13,0.33,0.35,0.58,0.48,0.89c0.14,0.29,0.18,0.61,0.3,0.9c0.2,0.42,0.35,0.66,0.34,1.27c0,0.04-0.02,0.1-0.07,0.11
		c-0.11,0.04-0.23-0.14-0.31-0.19c-0.33-0.34-0.36-0.62-0.57-1.08c-0.32-0.67-0.71-1.29-1.02-1.94c-0.14-0.33-0.21-0.71-0.38-1.04
		c-0.08-0.21-0.22-0.44-0.32-0.65c-0.16-0.3-0.23-0.61-0.39-0.89c-0.21-0.42-0.4-0.89-0.58-1.32c-0.08-0.19-0.08-0.35-0.16-0.5
		c-0.08-0.19-0.19-0.35-0.28-0.53c-0.11-0.27-0.18-0.62-0.3-0.91c-0.24-0.53-0.52-1.1-0.74-1.66c-0.17-0.53-0.27-1-0.46-1.56
		c-0.07-0.2-0.18-0.45-0.24-0.66c-0.07-0.21-0.07-0.37-0.14-0.56c-0.18-0.47-0.4-0.99-0.6-1.43c-0.11-0.23-0.14-0.45-0.22-0.7
		c-0.11-0.28-0.23-0.62-0.34-0.92c-0.14-0.36-0.15-0.8-0.3-1.22c-0.31-0.83-0.71-1.74-0.97-2.66c-0.04-0.21-0.02-0.42-0.08-0.63
		c-0.15-0.45-0.31-0.96-0.43-1.44c-0.17-0.53-0.14-1.1-0.32-1.63c-0.21-0.67-0.44-1.37-0.66-2.03c-0.06-0.22-0.03-0.42-0.09-0.63
		c-0.15-0.54-0.33-1.14-0.51-1.62c-0.09-0.23-0.09-0.5-0.18-0.72c-0.11-0.29-0.38-0.18-0.37,0.14c0.02,0.27,0.13,0.63,0.16,0.77
		c0.03,0.21,0.03,0.4,0.07,0.6c0.07,0.36,0.19,0.67,0.3,0.99c0.11,0.36,0.11,0.65,0.21,1.02c0.06,0.16,0.14,0.37,0.17,0.54
		c0.12,0.35,0.12,0.73,0.24,1.03c0.08,0.26,0.17,0.56,0.24,0.83c0.05,0.19,0.04,0.35,0.11,0.51c0.07,0.32,0.18,0.65,0.28,0.95
		c0.05,0.2,0.03,0.36,0.07,0.53c0.07,0.25,0.14,0.52,0.21,0.74c0.06,0.24,0.06,0.56,0.12,0.8c0.16,0.44,0.32,0.91,0.46,1.32
		c0.16,0.45,0.17,0.95,0.35,1.41c0.31,0.84,0.57,1.8,0.89,2.64c0.08,0.22,0.05,0.44,0.13,0.68c0.08,0.36,0.16,0.72,0.28,1.07
		c0.07,0.17,0.18,0.35,0.25,0.52c0.09,0.2,0.11,0.4,0.21,0.62c0.07,0.17,0.18,0.35,0.24,0.52c0.11,0.27,0.07,0.6,0.18,0.84
		c0.07,0.21,0.18,0.42,0.25,0.63c0.09,0.23,0.09,0.47,0.18,0.69c0.09,0.2,0.23,0.39,0.31,0.56c0.08,0.19,0.11,0.38,0.18,0.57
		c0.07,0.2,0.18,0.41,0.27,0.6c0.08,0.2,0.11,0.43,0.19,0.66c0.07,0.18,0.21,0.38,0.28,0.57c0.07,0.21,0.07,0.45,0.17,0.68
		c0.12,0.34,0.32,0.6,0.46,0.94c0.09,0.21,0.11,0.47,0.21,0.71c0.13,0.28,0.28,0.56,0.41,0.81c0.16,0.36,0.32,0.74,0.44,1.06
		c0.27,0.61,0.38,1.28,0.63,1.88c0.23,0.42,0.48,0.86,0.7,1.28c0.11,0.24,0.14,0.5,0.25,0.74c0.14,0.27,0.34,0.49,0.45,0.76
		c0.11,0.26,0.18,0.52,0.28,0.78c0.15,0.33,0.38,0.64,0.53,0.95c0.08,0.19,0.14,0.39,0.21,0.55c0.17,0.38,0.45,0.66,0.6,1.04
		c0.09,0.22,0.18,0.46,0.25,0.71c0.2,0.37,0.46,0.71,0.66,1.08c0.14,0.31,0.22,0.59,0.38,0.86c0.26,0.4,0.43,0.68,0.69,1.1
		c0.17,0.25,0.39,0.66,0.52,0.93c0.13,0.31,0.36,0.53,0.5,0.81c0.12,0.27,0.3,0.57,0.44,0.84c0.19,0.31,0.35,0.52,0.53,0.78
		c0.32,0.46,0.5,0.96,0.8,1.43c0.21,0.32,0.43,0.64,0.67,0.95c0.6,0.82,1.45,2.32,1.83,2.83c0.31,0.39,0.56,0.89,0.83,1.29
		c0.22,0.34,0.51,0.66,0.73,0.95c0.2,0.27,0.35,0.54,0.53,0.81l0.17,0.2c7.74,9.83,15.7,16.35,22.44,20.62h-0.02
		c3.57,2.22,5.49,2.87,5.49,2.87c0.44,0.2,0.12,0.52-0.09,0.66l-39.95,25.55c-0.12,0.07-0.43,0.29-0.32,0.56
		c0.11,0.19,0.52,0.07,0.62,0.04c32.05-11.25,55.31-20.5,69.53-27.24C266.05,323.25,270.89,319.34,270.38,317.4"/>
</g>
</svg>
