<?xml version="1.0" encoding="UTF-8"?>
<svg id="Layer_1" data-name="Layer 1" xmlns="http://www.w3.org/2000/svg" viewBox="0 0 213.86 196.45">
  <defs>
    <style>
      .cls-1 {
        fill: #005d63;
        stroke-width: 0px;
      }
    </style>
  </defs>
  <path class="cls-1" d="M110.3,105.84c-.37.04-.82-.52-1-.79-.06-.07-.27-.52-.21-.58.07-.07.51.07.63.17.28.23.53.55.67,1.11,0,.07-.06.1-.09.1M100.87,100.62c-.26.08-.9-.64-1.08-.94-.35-.5-.67-1.04-1.04-1.53-.33-.46-.69-.77-.78-1.53,0-.09-.06-.34,0-.34.36.03.71.66.88.92.14.18.28.35.42.53.15.27.24.6.42.85.22.32.5.59.74.91.13.17.3.32.37.54.05.13.17.55.07.59M98.18,100.52c-.19-.03-.3-.15-.42-.24-.33-.24-.6-.64-.61-1.2,0-.07.01-.09.05-.09.4,0,.81.6.97.9.03.1.14.33.12.47,0,.11-.04.15-.11.17M89.21,102.33c-.02.05-.04.1-.13.1-.42-.02-.55-.64-.73-.95-.17-.22-.3-.51-.44-.74-.12-.18-.26-.36-.36-.54-.12-.25-.15-.52-.31-.73-.07-.12-.21-.22-.28-.34-.22-.31-.43-.63-.6-1.02-.03-.16-.05-.28-.11-.44-.07-.23-.18-.5-.26-.75-.03-.14-.06-.38-.03-.46.01-.04.03-.07.06-.06.31.06.64.85.79,1.13.18.32.45.56.62.89.12.31.16.66.33.95.12.21.32.39.45.6.18.25.3.62.44.91.14.34.37.6.51.93.05.15.08.39.04.54M87.52,90.08c-.07-.15-.15-.32-.21-.46-.07-.18-.07-.36-.15-.51-.25-.58-.53-1.19-.8-1.75-.11-.22-.24-.66-.15-.95.01-.04.11-.01.14,0,.08.1.15.14.22.23.06.07.07.16.13.25.12.19.28.39.39.59.21.46.25.96.46,1.41.14.28.36.54.51.83.06.16.11.32.17.5.03.14.02.3.03.4,0,.15-.01.25-.07.25-.38-.02-.5-.52-.66-.8M172.83,127.88c-.51-1.83-5.85-1.05-10.27-1.45-4-.35-9.14-1.09-15.33-3.22-5.78-2.01-11.37-4.32-16.24-6.95,0,0-1.99-1.04-2.2-1.16-.39-.24-.71-.42-1.13-.66-.22-.15-.6-.37-.85-.47-.35-.16-.57-.34-.88-.52-.3-.19-.72-.39-1-.57-.46-.28-.74-.49-1.16-.8-.25-.19-.39-.25-.74-.44-.21-.14-.58-.35-.78-.47-.39-.25-.63-.47-1.02-.73-.25-.19-.42-.3-.71-.47-.3-.16-.57-.39-.82-.57-.14-.11-.32-.22-.45-.36-.28-.27-.57-.53-.88-.75-.26-.21-.53-.47-.81-.66-.16-.14-.46-.39-.63-.52-.43-.31-.71-.55-1.15-.85-.27-.21-.52-.5-.79-.72-.33-.23-.61-.5-.95-.71-.2-.17-.44-.35-.6-.53-.22-.24-.4-.41-.64-.65-.17-.18-.46-.39-.64-.57-.28-.34-.66-.69-1.01-.97-.22-.21-.28-.31-.37-.41-.06-.1-.16-.2-.31-.36l-.32-.32c-.08-.07-.17-.15-.4-.38-.07-.07-.21-.26-.34-.43-.11-.14-.21-.28-.26-.36-.23-.24-.38-.38-.52-.55-.11-.12-.22-.24-.37-.37-.08-.09-.16-.2-.21-.31-.06-.11-.14-.21-.21-.3-.14-.16-.23-.09-.26-.07-.07.07-.11.2-.01.39.11.21.27.44.38.58.01.03.04.06.05.07.03.07.07.14.11.21.06.1.13.2.18.31.18.22.37.39.52.57l.18.18c.11.13.21.25.3.38.09.15.19.3.32.43.06.04.11.11.17.18.04.07.11.15.17.23.08.08.19.19.3.3.16.17.34.33.48.46.12.11.25.24.39.38.32.38.67.77.96,1.14.17.21.46.37.66.52.24.17.39.42.56.63.14.16.42.4.54.58.33.41.56.65.99.95.25.2.45.36.66.63.12.15.48.52.63.67.35.45.51.89.45.89-.24.06-.83-.46-1.18-.67-.3-.19-.34-.26-.6-.47-.07-.06-.5-.37-.64-.55-.12-.12-.43-.44-.54-.58-.48-.62-.66-.66-1.23-1.2-.42-.41-.92-.77-1.33-1.15-.12-.11-.24-.24-.36-.37-.12-.14-.28-.26-.4-.38-.2-.24-.44-.7-.66-.88-.24-.18-.41-.33-.64-.53-.09-.04-.17-.15-.24-.22-.13-.07-.26-.18-.35-.31-.27-.33-.54-.69-.81-1.03-.12-.18-.32-.32-.43-.49-.27-.37-.5-.76-.77-1.13-.38-.5-.92-.85-1.31-1.35-.36-.51-.6-1.11-.95-1.63-.15-.24-.39-.42-.56-.62-.11-.14-.15-.29-.24-.43-.19-.27-.4-.57-.61-.85-.24-.35-.41-.77-.66-1.15-.04-.06-.14-.3-.26-.51-.17-.2-.31-.41-.47-.68-.16-.26-.25-.44-.37-.64-.14-.19-.21-.37-.31-.51-.07-.13-.25-.37-.32-.47-.24-.34-.3-.52-.54-.85-.15-.18-.31-.35-.42-.29-.11.07-.07.19-.04.28.08.28.08.24.21.45.19.34.25.51.46.81.08.16.25.51.39.71.14.19.25.4.35.57.08.18.23.61.39.79.11.13.24.41.33.6.21.39.45.71.66,1.01.14.25.27.53.4.77.27.42.6.79.88,1.21l.49.89c.16.24.39.44.54.7.2.28.31.61.5.9.14.24.35.44.5.69.27.39.52.76.78,1.13.16.21.35.37.5.58.2.28.37.6.59.84.25.24.32.39.53.61.32.37,1.03,1.42.93,1.42-.44.05-1.28-.9-1.66-1.23-.26-.27-.57-.47-.76-.73-.27-.39-.48-.81-.76-1.17-.11-.14-.28-.24-.37-.38-.2-.24-.38-.51-.6-.74-.09-.08-.2-.15-.27-.25-.35-.45-.63-.92-.98-1.38-.13-.18-.32-.35-.44-.54-.11-.14-.17-.29-.27-.45-.12-.21-.31-.41-.43-.62-.11-.15-.17-.32-.27-.44-.17-.28-.42-.52-.6-.8-.14-.22-.17-.51-.32-.75-.38-.56-.8-1.15-1.16-1.73-.08-.15-.14-.31-.22-.47-.28-.46-.57-.96-.88-1.43-.11-.17-.15-.37-.27-.53-.13-.23-.34-.38-.46-.59-.12-.17-.17-.33-.25-.51-.11-.24-.25-.5-.38-.71-.07-.16-.12-.31-.21-.44-.34-.55-.64-1.14-.93-1.76-.17-.33-.39-.61-.54-.94-.17-.35-.34-.74-.5-1.08-.09-.23-.19-.47-.24-.71-.18-.39-.45-.71-.62-1.1-.12-.24-.18-.5-.28-.72-.07-.13-.19-.24-.3-.18-.08.05-.09.16-.03.37.11.41.32.84.42,1.08.21.44.3.92.51,1.36.11.24.27.48.38.74l.58,1.27c.11.22.2.46.34.67.05.14.17.27.22.39.13.31.17.59.28.88.16.29.38.53.48.81.7,1.42,1.38,2.83,2.21,4.1.22.36.34.8.57,1.16.25.38.57.64.81,1.02.18.31.24.72.4,1.03.28.49.62.91.92,1.34.07.14.09.27.18.39.11.18.26.37.37.55.15.24.22.51.39.72.18.24.42.44.58.68.23.31.38.65.6.94.16.21.39.36.55.57.25.33,1.13,1.45,1.38,1.79.37.47,1.05,1.2,1.38,1.83.09.21.43.65.36.75-.18.14-1.03-.8-1.18-.95-.35-.35-.66-.81-.97-1.2-.08-.09-.92-.89-.99-.98-.07-.11-.15-.22-.22-.35-.24-.33-.38-.73-.62-1.07-.11-.12-.25-.22-.36-.36-.18-.25-.32-.54-.5-.8-.3-.39-.67-.73-.96-1.15-.34-.42-.56-.94-.88-1.39-.17-.21-.36-.39-.51-.62-.08-.1-.11-.21-.17-.32-.13-.17-.28-.38-.36-.58-.09-.18-.16-.34-.26-.51-.33-.53-.67-1.09-1-1.62-.15-.22-.24-.5-.39-.74-.24-.38-.59-.72-.83-1.13-.32-.46-.46-1.02-.76-1.5-.2-.31-.44-.59-.62-.9-.22-.34-.33-.73-.51-1.08-.18-.31-.42-.6-.57-.91-.16-.35-.26-.68-.42-1.02-.09-.18-.23-.37-.31-.56-.11-.23-.14-.47-.24-.71-.28-.64-.74-1.25-1.03-1.89-.23-.46-.42-.95-.59-1.43-.08-.26-.14-.53-.26-.77-.26-.58-.59-1.21-.86-1.81-.11-.31-.22-.63-.33-.93-.01-.1-.03-.19-.07-.27-.13-.27-.27-.54-.38-.81-.12-.33-.22-.64-.33-.98-.41-1.03-.8-2.2-1.19-3.29-.04-.2-.06-.43-.14-.64-.19-.56-.4-1.13-.6-1.69-.12-.29-.39-.18-.32.11.07.38.14.48.18.78.03.17.06.31.09.45.04.19.15.39.2.56.11.34.12.65.23.99.16.43.32.89.47,1.34.04.21.08.44.13.69.08.21.16.44.23.63.22.57.45,1.1.64,1.67.07.32.17.63.25.97.09.18.23.36.28.54.08.14.09.3.16.46.15.35.28.73.43,1.09.14.3.32.6.43.93.05.14.05.27.11.42.34.96.73,1.96,1.13,2.86.11.23.14.45.23.7.08.19.21.37.28.57.04.12.08.24.14.38.13.25.33.47.46.73.36.74.66,1.44,1.1,2.08.42.57.59,1.37.9,2.08.16.32.34.6.53.89.09.15.16.34.23.49.19.36.3.67.56.99.18.27.16.35.32.71.04.11.23.8.19.8-.06.04-.4-.17-.51-.31-.17-.17-.41-.39-.58-.77-.08-.21-.25-.53-.34-.71-.21-.46-.59-.84-.84-1.27-.17-.23-.24-.53-.38-.79-.22-.49-.48-.98-.72-1.49-.09-.2-.24-.39-.37-.59-.12-.18-.18-.4-.32-.6-.25-.42-.57-.89-.78-1.35-.16-.35-.24-.7-.4-1.02-.04-.11-.14-.21-.2-.32-.11-.17-.15-.35-.25-.55-.12-.26-.28-.51-.42-.78-.24-.53-.39-1.07-.63-1.57-.12-.26-.32-.47-.42-.71-.16-.37-.19-.83-.39-1.22-.43-1.02-.96-2.08-1.37-3.17-.05-.18-.07-.39-.13-.57-.17-.48-.39-.92-.58-1.37-.07-.21-.08-.39-.15-.6-.12-.33-.27-.66-.39-.97-.03-.11-.04-.23-.08-.34-.13-.29-.21-.64-.35-.95-.07-.16-.2-.33-.25-.5-.13-.32-.09-.69-.19-1-.16-.44-.34-.92-.51-1.34-.07-.25-.09-.5-.2-.75-.11-.3-.21-.62-.32-.9-.12-.32-.11-.61-.21-.94-.05-.24-.16-.51-.25-.71-.15-.44-.21-.9-.36-1.29-.01-.05-.04-.14-.07-.21-.04-.12-.13-.22-.23-.19-.12.04-.12.21-.12.32.03.3.15.58.24.84.08.25.15.54.21.79.04.18.03.35.07.53.06.25.15.49.22.74.06.22.03.48.08.66.16.53.33,1.13.51,1.62.07.26.09.57.17.78.11.28.19.56.28.81.08.24.11.43.19.64.11.24.23.46.31.73.08.32.08.64.19.94.2.52.42.98.59,1.48.06.17.07.36.14.54.16.41.26.86.4,1.29.23.58.52,1.17.71,1.76.23.58.26,1.28.5,1.81.13.27.38.44.5.7.09.18.06.36.13.57.06.22.17.43.24.64.05.2.11.38.16.56.09.22.26.43.34.64.16.35.25.73.44,1.02.14.23.34.45.47.73.14.28.18.6.3.9.2.44.45.85.6,1.33.16.4.21.85.42,1.21.18.38.44.71.65,1.07.12.27.23.53.36.82.11.19.3.4.43.62.14.26.31.56.42.83.11.22.14.42.24.61.19.27.33.52.51.8.16.24.34.57.45.85.09.24.18.46.31.66.15.19.33.38.44.57.13.21.28.91.21.93-.13.05-.55-.34-.67-.47-.32-.42-.5-.95-.78-1.37-.33-.46-.53-.72-.77-1.24-.15-.31-.39-.84-.58-1.13-.17-.25-.39-.49-.52-.77-.11-.22-.17-.52-.26-.75-.16-.34-.47-.56-.63-.89-.2-.39-.27-.8-.47-1.18-.08-.16-.22-.36-.3-.55-.11-.23-.17-.45-.27-.69-.22-.47-.56-.86-.76-1.35-.24-.49-.37-.99-.62-1.5-.12-.24-.33-.49-.45-.76-.18-.35-.25-.71-.43-1.06-.09-.21-.24-.42-.35-.63-.14-.3-.19-.64-.33-.96-.34-.73-.65-1.45-.98-2.18-.12-.28-.15-.56-.28-.85-.11-.24-.24-.46-.36-.73-.27-.63-.38-1.38-.66-2.01-.15-.33-.32-.63-.45-.97-.19-.56-.28-1.12-.47-1.68-.31-.85-.56-1.76-.86-2.58-.08-.27-.11-.51-.19-.77-.09-.25-.18-.51-.27-.75-.06-.19-.11-.5-.17-.75-.22-.73-.44-1.44-.69-2.17-.04-.18-.06-.47-.13-.72-.02-.12-.11-.27-.13-.38-.06-.16-.06-.3-.11-.47-.2-.53-.34-1.15-.52-1.68-.03-.16-.04-.4-.11-.6-.24-.74-.36-1.67-.64-2.36-.06-.13-.15-.26-.28-.23-.14.03-.11.18-.09.3.04.36.17.64.23.94.02.12.02.3.02.44.03.14.05.31.09.42.14.45.28.98.42,1.43.04.21.01.54.06.78.19.71.33,1.56.6,2.21.25.57.3,1.28.44,1.91.06.26.08.54.11.82.05.25.2.45.28.67.06.17.06.31.12.46.13.45.23.92.41,1.37.11.32.27.62.38.94.06.13.03.25.07.4.07.32.14.63.24.95.21.61.42,1.3.64,1.91.13.36.16.7.28,1.03.48,1.33,1,2.68,1.48,4.01.09.29.17.58.24.86.11.31.28.58.42.83.17.36.19.72.33,1.09.16.41.37.75.52,1.2.07.21.16.44.25.65.07.17.22.32.31.45.11.27.13.62.26.88.13.27.35.47.5.74.16.22.17.51.28.78.2.4.42.77.6,1.21.08.18.13.35.2.52.07.19.24.39.33.59,0,0,.02,0,.02.01.01.04.01.07.03.12.01.09.04.2.07.27.04.12.18.32.22.39.03.04.13.15.2.24.04.04.07.08.11.14.18.26.19.68.34.97.14.31.39.55.55.84.11.24.16.83.03.84-.6,0-.65-.84-.84-1.28-.18-.36-.41-.64-.6-.98-.03-.06-.09-.19-.14-.33-.04-.11-.09-.23-.14-.34-.07-.16-.07-.15-.12-.25-.06-.11-.23-.32-.28-.43v-.02c-.24-.36-.4-.89-.58-1.14-.08-.15-.21-.28-.3-.43-.15-.23-.23-.52-.35-.8-.12-.22-.3-.46-.4-.71-.14-.3-.16-.68-.3-.98-.07-.16-.21-.33-.28-.47-.16-.36-.26-.73-.44-1.07-.08-.17-.2-.32-.3-.49-.13-.28-.21-.59-.36-.88-.32-.56-.65-1.18-.92-1.78-.15-.37-.21-.73-.37-1.08-.13-.3-.31-.6-.44-.88-.08-.19-.12-.38-.19-.58-.13-.35-.27-.7-.41-1.03-.07-.21-.14-.74-.19-.95-.11-.24-.23-.52-.34-.76-.16-.37-.22-.76-.39-1.14-.12-.27-.25-.59-.37-.88-.09-.25-.11-.47-.21-.72-.07-.17-.19-.38-.24-.56-.09-.21-.14-.57-.21-.85-.11-.32-.24-.62-.34-.94-.07-.23-.07-.78-.15-.92-.33-.97-.63-2.02-.95-3.01-.12-.43-.19-.9-.33-1.34-.04-.18-.04-.4-.09-.58-.08-.27-.21-.58-.28-.84-.05-.21-.08-.41-.13-.6-.05-.2-.16-.42-.23-.62-.19-.58-.28-1.21-.45-1.77-.07-.25-.07-.56-.13-.78-.23-.71-.3-1.52-.48-2.29-.04-.21-.09-.42-.14-.63-.36-1.38-.53-2.94-.93-4.28-.07-.25.01-.57-.03-.85-.09-.31-.18-.59-.27-.86-.04-.15-.04-.25-.07-.39-.07-.24-.18-.42-.28-.39-.15.06-.13.2-.13.39.02.32.05.56.13.81.03.23.01.39.06.59.13.42.18,1.03.23,1.42.03.17.02.38.05.58.04.19.19.47.24.68.04.3.04.67.07.97.05.26.13.52.21.77.05.21,0,.42.07.62.05.21.18.4.21.61.04.27,0,.63.05.84.31,1.23.39,2.66.76,3.85.04.18.04.35.08.51.31,1.02.53,2.14.84,3.16.03.15.03.32.07.5.11.36.18.75.25,1.12.05.16.05.31.08.46.11.39.25.75.37,1.13.05.18.06.34.09.53.03.15.11.31.15.43.06.22.04.43.11.61.04.13.15.24.18.38.04.21.07.42.14.64.07.26.21.52.33.77.08.21.08.42.16.63.16.38.32.79.44,1.17.13.32.14.63.26.96.07.2.16.42.23.63.05.17.08.32.14.5.06.16.23.41.34.6.07.23.04.53.12.77.07.25.21.44.31.66.07.24.07.46.13.71.06.19.19.36.26.53.07.19.15.4.22.58.04.14.17.27.22.41.09.22.19.46.27.71.15.32.17.75.27,1.13.03.1.01.38-.06.4-.15.02-.33-.22-.43-.37-.17-.24-.35-.55-.49-.85-.04-.12-.07-.22-.11-.34-.08-.25-.18-.54-.3-.81-.06-.15-.17-.33-.23-.5-.08-.24-.04-.54-.14-.75-.07-.18-.22-.32-.32-.5-.05-.17-.07-.35-.15-.5-.08-.2-.19-.38-.32-.56-.07-.18-.07-.36-.14-.59-.07-.24-.15-.5-.25-.72-.11-.24-.25-.46-.36-.73-.04-.12-.07-.25-.12-.39-.06-.18-.16-.39-.23-.54-.03-.15-.06-.28-.12-.42-.09-.2-.2-.41-.27-.63-.06-.18-.07-.36-.15-.54-.11-.31-.2-.65-.31-.96-.07-.24-.08-.47-.16-.71-.09-.27-.21-.55-.31-.82-.08-.22-.11-.47-.17-.69-.11-.31-.25-.57-.36-.89-.06-.25-.06-.5-.11-.73-.18-.58-.37-1.21-.56-1.8-.19-.66-.22-1.42-.42-2.09-.13-.46-.28-.92-.43-1.38-.06-.25-.06-.49-.12-.73-.14-.51-.32-1.21-.5-1.75-.09-.3-.07-.59-.16-.91-.08-.31-.11-.68-.19-1.01-.07-.21-.14-.34-.18-.61-.06-.25-.05-.57-.09-.77-.04-.21-.39-1.37-.42-1.58-.03-.2-.03-.61-.05-.73-.02-.11-.2-.62-.21-.73-.03-.14-.03-.29-.09-.56-.04-.26-.19-.82-.22-.99-.03-.16-.03-.51-.06-.65-.03-.19-.14-.56-.21-.83-.09-.33-.01-.69-.12-1-.06-.24-.16-.45-.24-.69-.04-.19-.11-.44-.11-.57-.03-.16-.03-.54-.04-.68,0-.19-.08-.5-.11-.78-.02-.36-.11-.77-.17-.99-.03-.14-.02-.31-.04-.42-.11-.36-.2-.71-.4-.68-.13.01-.18.12-.12.37.07.27.09.5.17.79.06.15.06.52.07.64,0,.21.01.24.04.43,0,.07.03.27.04.36.03.13.08.31.08.41v.43c0,.11,0,.14.02.31.05.17.06.18.08.33.01.13,0,.24,0,.34,0,.13.02.23.05.37.07.24.24.59.18.94-.07.39.03.75.13,1.07.04.22,0,.45.04.64l.21.89c.06.26.03.47.09.7.08.33.32.77.33.9.03.16.01.55.06.8.04.24.11.53.12.7.02.14,0,.22.02.33.01.12.18.68.2.82.03.16.02.23.05.38.03.15.16.75.18.95.03.19.01.32.04.5.07.32.2.56.25.84.05.22.03.35.06.53.06.26.15.51.2.76.04.2.04.4.07.59.08.43.15.88.26,1.31.08.25.23.5.31.74.06.22.07.45.14.68.05.2.19.38.24.6.04.15.02.34.05.53.06.2.16.39.18.62.05.15.02.3.05.46.05.18.15.34.19.51.04.23.04.47.11.67.06.26.17.52.25.76.08.22.05.46.09.71.15.53.33,1.11.51,1.59.08.25.06.54.14.82.07.18.17.32.24.49.06.17.02.36.06.54.08.34.14.76.25,1.07.11.35.32.65.45.98.12.36.14.73.24,1.09.12.32.26.63.39.9.11.27.07.61.18.88.08.31.3.53.42.83.15.34.22.69.33,1.03.03.15.06.29.09.45.14.43.37.81.53,1.23.05.21.07.37.13.55.11.32.24.62.38.94.13.25.28.51.41.78.12.24.13.5.25.75.07.24.19.52.3.76.06.16.06.3.14.46.28.68.66,1.35.98,2.02.18.36.25.76.42,1.13.14.31.3.57.43.89.07.2.11.39.2.58.16.36.4.73.57,1.11.04.07.17.46.11.62,0,.01-.02.04-.03.04-.11.03-.35-.15-.46-.27-.44-.43-.52-1.24-.8-1.8-.08-.15-.19-.33-.28-.5-.04-.12-.06-.22-.12-.33-.2-.37-.42-.67-.59-1.08-.12-.26-.15-.58-.25-.83-.52-1.08-1.09-2.11-1.55-3.17-.22-.49-.27-1.05-.45-1.58-.12-.31-.32-.57-.43-.85-.11-.23-.13-.48-.24-.71-.15-.32-.35-.59-.45-.94-.07-.21-.11-.43-.19-.63-.09-.25-.26-.44-.36-.65-.14-.35-.17-.69-.3-1.08-.05-.19-.13-.42-.21-.61-.05-.17-.07-.35-.13-.53-.14-.41-.38-.77-.55-1.17-.11-.28-.07-.63-.18-.91-.11-.22-.28-.4-.39-.63-.08-.24,0-.54-.07-.82-.07-.27-.18-.53-.27-.78-.04-.18-.05-.34-.12-.49-.13-.35-.24-.67-.36-.99-.05-.18-.05-.33-.13-.5-.08-.18-.24-.36-.32-.59-.08-.32-.11-.65-.18-.99-.14-.4-.28-.75-.4-1.16-.05-.13-.05-.25-.07-.39-.11-.37-.16-.78-.24-1.13-.05-.18-.03-.34-.07-.51-.11-.34-.23-.7-.34-1.01-.05-.22-.07-.43-.12-.63-.15-.55-.32-1.18-.48-1.7-.03-.16-.01-.29-.07-.44-.11-.41-.28-.92-.38-1.33-.04-.25-.04-.5-.11-.72-.05-.3-.16-.56-.22-.84-.01-.14,0-.24,0-.34-.03-.19-.04-.39-.07-.55-.18-.76-.48-1.66-.63-2.4-.07-.27-.07-.55-.11-.8-.03-.2-.04-.41-.11-.6-.06-.2-.15-.39-.18-.6-.03-.32-.04-.63-.09-.94,0-.03,0-.04-.01-.07-.04-.37-.24-1.16-.28-1.47-.06-.37-.11-.73-.15-1.11,0-.23-.05-.47-.07-.73-.06-.38-.16-.73-.19-1.12-.02-.27-.01-.51-.04-.72-.01-.16-.03-.39-.21-.39s-.15.2-.17.37c-.01.39.06.92.09,1.16.06.45.01.91.06,1.37.03.26.12.53.15.76.06.44.11.9.15,1.31v.02c.02.21.03.39.07.58,0,.02,0,.03.02.05v.06c.03.08.04.18.07.25.04.16.03.3.07.47.14.52.11,1.08.24,1.57.19.74.3,1.53.53,2.28.05.2,0,.42.05.65.08.22.14.45.19.68.05.28.01.57.08.84.06.26.15.53.21.78.09.28.09.6.18.93.09.34.2.7.25,1.01.08.39.11.82.19,1.2.05.35.25.74.33,1.11,0,.1,0,.23.01.37.05.25.13.53.19.76.02.13.01.21.05.35.13.49.27,1.08.41,1.54.04.14.05.29.08.42.11.33.2.58.24.75.03.17.06.36.09.54.07.25.16.46.19.71.04.18.07.34.13.52.05.21.15.4.23.61.14.42.17.89.31,1.31.08.24.21.49.3.74.06.25.09.54.17.81.13.41.28.89.43,1.3.19.5.3,1.05.45,1.5.07.2.06.38.13.59.15.45.3.98.44,1.44.08.25.08.5.19.74.16.39.39.74.54,1.13.12.36.15.69.28,1.02.17.43.36.85.54,1.32.11.32.16.63.27.94.11.23.25.51.38.75.08.22.18.45.23.68.06.17.24.46.38.7.14.32.17.64.27.97.19.52.43,1.04.64,1.51.09.18.11.35.18.56.13.33.35.58.48.89.14.29.18.61.3.9.2.42.35.66.34,1.27,0,.04-.02.1-.07.11-.11.04-.23-.14-.31-.19-.33-.34-.36-.62-.57-1.08-.32-.67-.71-1.29-1.02-1.94-.14-.33-.21-.71-.38-1.04-.08-.21-.22-.44-.32-.65-.16-.3-.23-.61-.39-.89-.21-.42-.4-.89-.58-1.32-.08-.19-.08-.35-.16-.5-.08-.19-.19-.35-.28-.53-.11-.27-.18-.62-.3-.91-.24-.53-.52-1.1-.74-1.66-.17-.53-.27-1-.46-1.56-.07-.2-.18-.45-.24-.66-.07-.21-.07-.37-.14-.56-.18-.47-.4-.99-.6-1.43-.11-.23-.14-.45-.22-.7-.11-.28-.23-.62-.34-.92-.14-.36-.15-.8-.3-1.22-.31-.83-.71-1.74-.97-2.66-.04-.21-.02-.42-.08-.63-.15-.45-.31-.96-.43-1.44-.17-.53-.14-1.1-.32-1.63-.21-.67-.44-1.37-.66-2.03-.06-.22-.03-.42-.09-.63-.15-.54-.33-1.14-.51-1.62-.09-.23-.09-.5-.18-.72-.11-.29-.38-.18-.37.14.02.27.13.63.16.77.03.21.03.4.07.6.07.36.19.67.3.99.11.36.11.65.21,1.02.06.16.14.37.17.54.12.35.12.73.24,1.03.08.26.17.56.24.83.05.19.04.35.11.51.07.32.18.65.28.95.05.2.03.36.07.53.07.25.14.52.21.74.06.24.06.56.12.8.16.44.32.91.46,1.32.16.45.17.95.35,1.41.31.84.57,1.8.89,2.64.08.22.05.44.13.68.08.36.16.72.28,1.07.07.17.18.35.25.52.09.2.11.4.21.62.07.17.18.35.24.52.11.27.07.6.18.84.07.21.18.42.25.63.09.23.09.47.18.69.09.2.23.39.31.56.08.19.11.38.18.57.07.2.18.41.27.6.08.2.11.43.19.66.07.18.21.38.28.57.07.21.07.45.17.68.12.34.32.6.46.94.09.21.11.47.21.71.13.28.28.56.41.81.16.36.32.74.44,1.06.27.61.38,1.28.63,1.88.23.42.48.86.7,1.28.11.24.14.5.25.74.14.27.34.49.45.76.11.26.18.52.28.78.15.33.38.64.53.95.08.19.14.39.21.55.17.38.45.66.6,1.04.09.22.18.46.25.71.2.37.46.71.66,1.08.14.31.22.59.38.86.26.4.43.68.69,1.1.17.25.39.66.52.93.13.31.36.53.5.81.12.27.3.57.44.84.19.31.35.52.53.78.32.46.5.96.8,1.43.21.32.43.64.67.95.6.82,1.45,2.32,1.83,2.83.31.39.56.89.83,1.29.22.34.51.66.73.95.2.27.35.54.53.81l.17.2c7.74,9.83,15.7,16.35,22.44,20.62h-.02c3.57,2.22,5.49,2.87,5.49,2.87.44.2.12.52-.09.66l-39.95,25.55c-.12.07-.43.29-.32.56.11.19.52.07.62.04,32.05-11.25,55.31-20.5,69.53-27.24,14.41-6.85,19.25-10.76,18.75-12.7"/>
</svg>